<!--
  - Project    OpenCart Core Langauge PL
  - Name       opencart-core-language-pl
  - Modified   09.07.2022, 21:15
  -
  - @category  OpenCart
  - @package   Core
  - @link      https://github.com/design4pro/opencart-core-language-pl
  -
  - @copyright Copyright (c) 2022 DESIGN4PRO OpenCart (https://opencart.design4.pro)
  - @author    DESIGN4PRO OpenCart <opencart@design4.pro>
  - @license   Commercial. All rights reserved.
  -            It is prohibited to copy and distribute in whole or in part.
  -            Licensee has the right to modify the content for your own.
  -            -- PL --
  -            Komercyjna. Wszelkie prawa zastrzeżone.
  -            Zabrania się kopiowania i rozpowszechniania w całości lub fragmentach.
  -            Właściciel licencji ma prawo do modyfikacji treści dla potrzeb własnych.
  -->

<svg xmlns="http://www.w3.org/2000/svg" viewBox="0 0 50 50"><path fill="#FFFFFF" d="M27.5 36c1.82 0 3.5 1.68 3.5 3.5S29.32 43 27.5 43 24 41.32 24 39.5s1.68-3.5 3.5-3.5zm-15 0c1.82 0 3.5 1.68 3.5 3.5S14.32 43 12.5 43 9 41.32 9 39.5s1.68-3.5 3.5-3.5zM2 10c5.078 4.793 11.02 6.805 21.852 6.805C34.68 16.805 48 16.23 48 19.68c0 1.722-1.82 3.351-5.078 6.226-3.164 2.875-9.297 8.051-9.297 8.051 0-1.437 8.723-8.91 8.723-11.21 0-3.067-12.696-2.65-18.348-2.747-9.68-.191-17.496-1.473-22-10z"/></svg>
